<svg width="315" height="90" viewBox="0 0 315 90" fill="none" xmlns="http://www.w3.org/2000/svg">
<path fill-rule="evenodd" clip-rule="evenodd" d="M29.5486 69.3066L42.6644 85.6133H10.1922L29.5486 69.3066ZM25.4243 64.2695L0.0228968 85.6631L0.0124817 33.0478L25.4243 64.2695ZM86.5422 11.2891C86.5422 11.2891 80.966 8.63881 74.4878 9.02588C67.0816 9.46379 60.8857 12.3154 57.3237 16.0782C55.0824 18.4421 52.6046 21.3259 51.36 24.4577C49.5551 28.9884 49.1697 34.975 49.1697 34.975C49.1697 34.975 46.5795 32.7678 43.3341 26.336C39.5607 18.8551 38.5286 14.3234 38.0172 9.15352C37.5621 4.61663 38.2766 0.130585 38.2766 0.130585H86.5422V11.2891ZM86.5422 26.2052V59.3809C86.5422 59.3809 83.5416 60.538 81.0941 60.538C78.6465 60.538 74.4784 60.1737 69.6375 57.5016C64.832 54.8513 62.1719 51.6447 60.1098 48.7391C58.0184 45.7837 56.2916 41.6868 55.7781 38.7345C55.3657 36.3727 54.921 30.4816 57.3237 25.6936C58.6277 23.0951 62.1272 18.6412 68.8647 18.388C74.3566 18.1764 77.4019 19.626 80.1932 21.1639C85.5049 24.0965 86.5422 26.2052 86.5422 26.2052V26.2052ZM33.9865 57.0513L42.6925 49.7655C39.9179 46.2072 39.1847 44.8665 36.0831 40.2725C32.9075 35.5706 30.2475 30.3976 27.9729 24.328C25.5107 17.7531 24.916 14.0619 25.1879 9.15352C25.5284 2.90855 26.9428 0.130585 26.9428 0.130585H0L0.0124981 14.7094C0.0124981 14.7094 20.6365 40.6586 33.9865 57.0513V57.0513ZM58.8619 85.5897H86.5421V65.3262C86.5421 65.3262 79.6765 68.4881 75.2136 68.7434C72.5567 68.8991 69.978 69.0018 65.8171 67.8904C61.1918 66.6566 58.564 65.4538 54.2772 61.9038C50.834 59.0563 46.8971 54.8515 46.8971 54.8515L38.14 62.1819C42.203 67.1713 45.2036 70.8033 46.1222 71.7808C50.0716 75.9711 51.7453 77.5111 54.4053 79.0043C57.0643 80.5007 65.9484 80.4198 65.9484 80.4198L58.8619 85.5897Z" fill="#9CA3AF"/>
<path fill-rule="evenodd" clip-rule="evenodd" d="M295.887 67.5646C295.887 73.436 296.676 83.0867 290.127 85.4361V85.8273H315V85.4361C308.455 82.9581 309.24 73.436 309.24 67.5646V18.3904C309.24 12.5221 308.455 2.86928 315 0.391219V0H290.127V0.391219C296.804 2.86928 295.887 12.3914 295.887 18.3904V67.5646ZM204.681 18.3904L249.586 75.1316C255.345 82.5648 259.405 86.8713 268.7 90V16.8255C268.7 9.52207 268.7 4.3034 275.509 0.391219V0H252.466V0.391219C259.405 4.3034 259.272 9.52207 259.272 16.8255V66.2612L211.359 5.99903L209.524 3.39022C208.61 2.34731 208.087 1.69563 207.563 0.130752V0H188.446V0.391219C195.255 4.3034 195.255 9.52207 195.255 16.8255V68.8721C195.255 76.1745 195.255 81.3911 188.318 85.4361V85.8273H211.491V85.4361C204.551 81.3911 204.681 76.1745 204.681 68.8721V18.3904ZM131.485 34.5663V9.00113L140.255 8.08586C148.111 7.30343 156.488 12.0001 156.488 21.0013C156.488 31.697 144.312 34.5663 135.805 34.5663H131.485ZM131.485 75.3922V43.1732L140.647 42.6522C152.168 41.9995 164.474 47.4797 164.474 60.1315C164.474 72.5229 153.611 77.479 142.873 76.4361L131.485 75.3922ZM118.13 67.4349C118.13 73.436 118.916 82.9581 112.368 85.4361V85.8273H133.97C143.788 85.8273 154.134 86.2196 163.296 81.7844C172.067 77.6097 179.007 68.9997 179.007 58.9557C179.007 46.1752 169.448 38.3477 157.665 35.8676C165.129 32.6081 170.756 27.652 170.756 18.9124C170.756 7.30344 160.679 0 143.399 0H112.368V0.391219C119.048 2.86928 118.13 12.3914 118.13 18.2596V67.4349Z" fill="#9CA3AF"/>
</svg>
