<svg width="315" height="90" viewBox="0 0 315 90" fill="none" xmlns="http://www.w3.org/2000/svg">
<path fill-rule="evenodd" clip-rule="evenodd" d="M85.2307 22.5887H102.206C109.08 22.5887 114.204 26.247 114.204 33.9486C114.204 39.5953 111.829 42.7399 107.702 44.406V44.533C112.621 45.7557 115.159 48.9648 115.159 54.4162C115.159 65.1354 107.383 67.3797 100.775 67.3797H85.2307V22.5887ZM95.0629 40.3005H97.8151C101.041 40.3005 104.374 39.3376 104.374 35.5483C104.374 31.4466 101.2 31.0579 97.9181 31.0579H95.0629V40.3005ZM95.0629 58.9107H97.9761C101.568 58.9107 105.322 58.2681 105.322 53.7112C105.322 48.838 101.464 48.3848 98.0791 48.3848H95.0629V58.9107Z" fill="#9CA3AF"/>
<path fill-rule="evenodd" clip-rule="evenodd" d="M128.067 22.5887H140.124L154.348 67.3797H143.56L140.813 57.8207H126.958L124.048 67.3797H114.055L128.067 22.5887ZM134.098 31.8311H133.987L129.231 49.3514H138.484L134.098 31.8311Z" fill="#9CA3AF"/>
<path fill-rule="evenodd" clip-rule="evenodd" d="M155.717 22.5887H168.249L180.729 53.008H180.832L180.676 22.5887H189.668V67.3797H177.452L164.545 36.7709H164.444L164.759 67.3797H155.717V22.5887Z" fill="#9CA3AF"/>
<path fill-rule="evenodd" clip-rule="evenodd" d="M193.006 22.5887H202.84V40.8824H202.946L214.047 22.5887H225.895L212.25 43.4431L226.953 67.3797H214.417L202.946 47.039H202.84V67.3797H193.006V22.5887Z" fill="#9CA3AF"/>
<path fill-rule="evenodd" clip-rule="evenodd" d="M239.146 22.5887H256.121C262.994 22.5887 268.125 26.247 268.125 33.9486C268.125 39.5953 265.749 42.7399 261.623 44.406V44.533C266.54 45.7557 269.078 48.9648 269.078 54.4162C269.078 65.1354 261.304 67.3797 254.697 67.3797H239.146V22.5887ZM248.983 40.3005H251.731C254.958 40.3005 258.286 39.3376 258.286 35.5483C258.286 31.4466 255.117 31.0579 251.84 31.0579H248.983V40.3005ZM248.983 58.9107H251.893C255.486 58.9107 259.242 58.2681 259.242 53.7112C259.242 48.838 255.383 48.3848 251.998 48.3848H248.983V58.9107Z" fill="#9CA3AF"/>
<path fill-rule="evenodd" clip-rule="evenodd" d="M271.257 22.5887H288.813C295.369 22.5887 300.712 26.1806 300.712 33.886C300.712 39.8531 298.385 43.8318 293.627 45.1776V45.3045C296.793 46.3339 297.009 49.7324 298.86 55.1878L302.457 67.3797H292.2L290.083 59.2993C288.073 51.5978 286.803 49.668 283.154 49.668H281.091V67.3797H271.257V22.5887ZM281.091 41.199H283.684C286.856 41.199 290.877 41.0681 290.877 35.9995C290.877 31.8314 287.436 31.0579 283.684 31.0579H281.091V41.199Z" fill="#9CA3AF"/>
<mask id="mask0_507_1699" style="mask-type:luminance" maskUnits="userSpaceOnUse" x="0" y="0" width="315" height="90">
<path fill-rule="evenodd" clip-rule="evenodd" d="M0 90H315V0H0V90Z" fill="white"/>
</mask>
<g mask="url(#mask0_507_1699)">
<path fill-rule="evenodd" clip-rule="evenodd" d="M305.166 67.38H315V22.589H305.166V67.38Z" fill="#9CA3AF"/>
<path fill-rule="evenodd" clip-rule="evenodd" d="M62.7869 -0.000427246H11.3127C5.06471 -0.000427246 -0.000305176 6.29867 -0.000305176 14.0705V14.2189V75.9326C-0.000305176 83.6282 4.97136 89.8843 11.1389 89.9996H62.7596C69.0092 89.9996 74.0758 83.7005 74.0758 75.9326L74.0999 14.0705C74.0999 6.29867 69.0365 -0.000427246 62.7869 -0.000427246V-0.000427246ZM17.4319 82.7885L14.6234 82.8256C11.2242 82.8256 8.46873 79.4368 8.46873 75.255L8.45264 74.6592V17.5279L8.47034 14.4516C8.59749 10.4045 11.1308 7.14655 14.4495 7.14655H20.1583C25.3312 7.14655 29.5271 12.6058 29.5271 19.0475C29.5271 22.2312 28.4986 25.1219 26.8328 27.2236L12.2671 45.1599L25.9187 62.0298C27.6794 64.2311 28.7433 67.1257 28.7433 70.2958C28.7433 77.1965 23.6783 82.7885 17.4319 82.7885V82.7885ZM59.4006 82.7319L33.9483 82.7182C33.9483 82.7182 36.8921 74.9991 36.8921 70.2216C36.8921 64.3971 35.2858 59.1918 32.7734 55.7483L24.0678 44.9783L32.9537 33.8372C35.5981 30.8195 37.3556 25.4638 37.3556 19.3639C37.3556 14.5336 36.2547 10.2541 34.4827 7.14655H40.6502C45.8247 7.14655 50.0206 12.6058 50.0206 19.0475C50.0206 22.2312 48.9937 25.1219 47.3279 27.2236L33.0406 44.9724L62.7145 81.6947C61.7746 82.4135 60.5884 82.7319 59.4006 82.7319V82.7319ZM65.6164 71.2665L44.3504 44.9646L54.4789 32.4719C56.5422 29.3448 57.8491 24.6317 57.8491 19.3639C57.8491 14.5023 56.7321 10.1193 54.944 7.00983L59.4779 7.1739C62.8771 7.1739 65.6325 10.5686 65.6325 14.7484L65.6164 71.2665Z" fill="#9CA3AF"/>
</g>
</svg>
