<svg width="290" height="105" viewBox="0 0 290 105" fill="none" xmlns="http://www.w3.org/2000/svg">
<path fill-rule="evenodd" clip-rule="evenodd" d="M127.831 23.6818H137.687C141.101 23.6818 143.634 24.3088 143.634 27.686C143.634 31.1509 139.791 32.1626 136.741 32.1626H125.901L127.831 23.6818ZM99.3025 66.3065H135.069C148.713 66.3065 160.754 60.954 160.754 47.4385C160.754 42.2647 157.096 37.3058 151.317 36.203V36.0529H151.405C158.923 34.2552 162.848 29.6086 162.848 22.5473C162.848 14.4424 157.784 10.2057 144.245 10.2057H112.23L99.3025 66.3065ZM123.539 42.6155H134.099C138.125 42.6155 141.548 43.2436 141.548 47.4221C141.548 51.97 136.835 53.0618 133.41 53.0618H121.088L123.539 42.6155Z" fill="#9CA3AF"/>
<path fill-rule="evenodd" clip-rule="evenodd" d="M177.133 66.3046H196.335L205.953 24.5732H223.246L226.58 10.206H172.755L169.443 24.5732H186.737L177.133 66.3046Z" fill="#9CA3AF"/>
<path fill-rule="evenodd" clip-rule="evenodd" d="M220.444 66.3046H238.699L245.945 34.8781H246.115L257.557 66.3046H276.426L289.54 10.206H271.268L264.283 40.8466H264.119L252.413 10.206H233.359L220.444 66.3046Z" fill="#9CA3AF"/>
<mask id="mask0_507_1653" style="mask-type:luminance" maskUnits="userSpaceOnUse" x="92" y="76" width="198" height="29">
<path fill-rule="evenodd" clip-rule="evenodd" d="M191.094 105H290V76.4859H92.1883V105H191.094Z" fill="white"/>
</mask>
<g mask="url(#mask0_507_1653)">
<path fill-rule="evenodd" clip-rule="evenodd" d="M92.1883 105C92.7648 103.089 92.5271 103.1 93.9458 97.9507C94.9659 92.8722 101.183 85.0983 112.141 84.2993C115.876 83.897 259.342 78.4173 290 76.4859L289.079 81.2531C260.197 84.6117 129.514 100.547 92.1883 105" fill="#9CA3AF"/>
</g>
<path fill-rule="evenodd" clip-rule="evenodd" d="M0 20.4004L39.2877 0L78.5815 20.4004V61.2033L68.7556 66.3124V25.5106L39.2877 10.2018L9.82954 25.5106V66.3124L0 61.2033V20.4004Z" fill="#9CA3AF"/>
<path fill-rule="evenodd" clip-rule="evenodd" d="M29.464 66.3126V76.5013L39.285 71.3999L49.1109 76.5013V66.3126L39.285 61.2035L29.464 66.3126Z" fill="#9CA3AF"/>
<path fill-rule="evenodd" clip-rule="evenodd" d="M68.7491 66.3126V56.0977L39.2812 40.7977L9.83282 56.0977V66.3126L39.2812 50.9962L68.7491 66.3126Z" fill="#9CA3AF"/>
<path fill-rule="evenodd" clip-rule="evenodd" d="M39.2817 20.4004L58.9285 30.6066V71.4018L49.1112 76.4956V35.6982L39.2817 30.6066L29.4667 35.6982V76.4956L19.653 71.4018V30.6066L39.2817 20.4004Z" fill="#9CA3AF"/>
</svg>
