<svg width="315" height="100" viewBox="0 0 315 100" fill="none" xmlns="http://www.w3.org/2000/svg">
<path fill-rule="evenodd" clip-rule="evenodd" d="M0.3321 68.7236C0.3321 63.7591 0.24909 59.5927 6.10352e-05 55.8779H8.6397L9.04479 62.2601H9.28718C11.2454 58.8875 14.8264 54.8991 21.5062 54.8991C26.72 54.8991 30.7925 58.0965 32.5 62.8796H32.6677C34.0548 60.4876 35.6784 58.7169 37.5503 57.4717C39.7517 55.7903 42.2777 54.8991 45.5358 54.8991C52.1318 54.8991 58.8066 59.7715 58.8066 73.596V99.0228H49.0339V75.1934C49.0339 68.0175 46.7569 63.7591 41.954 63.7591C38.5273 63.7591 35.9997 66.4219 34.948 69.5245C34.7006 70.5846 34.4565 71.9147 34.4565 73.1463V99.0228H24.6805V74.0376C24.6805 68.0175 22.4849 63.7591 17.8413 63.7591C14.0943 63.7591 11.5724 66.9538 10.6743 69.9598C10.2642 71.0298 10.0998 72.2668 10.0998 73.5048V99.0228H0.3321V68.7236Z" fill="#9CA3AF"/>
<path fill-rule="evenodd" clip-rule="evenodd" d="M96.8832 88.6594C96.8832 92.5557 97.0459 96.359 97.4535 99.0246H88.4096L87.7605 94.2416H87.5131C85.071 97.6115 80.9172 99.9998 75.7863 99.9998C67.8025 99.9998 63.3249 93.7142 63.3249 87.1542C63.3249 76.2526 72.1995 70.7644 86.8615 70.8519V70.1404C86.8615 67.3042 85.8014 62.6114 78.7979 62.6114C74.8865 62.6114 70.8124 63.9415 68.1262 65.7989L66.1688 58.7169C69.1065 56.7638 74.2423 54.901 80.5087 54.901C93.22 54.901 96.8832 63.6778 96.8832 73.0651V88.6594ZM87.1056 77.9402C80.0207 77.7614 73.2621 79.4446 73.2621 86.002C73.2621 90.2504 75.7864 92.2036 78.964 92.2036C82.9501 92.2036 85.887 89.3673 86.7802 86.2674C87.0226 85.4701 87.1056 84.5807 87.1056 83.8746V77.9402Z" fill="#9CA3AF"/>
<path fill-rule="evenodd" clip-rule="evenodd" d="M103.81 68.7236C103.81 63.7591 103.72 59.5927 103.482 55.8779H112.272L112.763 62.345H113.004C114.716 58.9823 119.033 54.8991 125.629 54.8991C132.554 54.8991 139.721 59.7715 139.721 73.419V99.0228H129.704V74.6624C129.704 68.4563 127.587 63.7591 122.129 63.7591C118.138 63.7591 115.369 66.8608 114.308 70.1403C113.987 71.1174 113.903 72.4492 113.903 73.6809V99.0228H103.81V68.7236Z" fill="#9CA3AF"/>
<path fill-rule="evenodd" clip-rule="evenodd" d="M183.155 38.542V86.8825C183.155 91.3116 183.316 96.1046 183.479 99.0248H174.519L174.118 92.2037H173.952C171.589 96.9904 166.776 100 160.999 100C151.555 100 144.059 91.2303 144.059 77.9404C143.976 63.4974 152.284 54.9011 161.813 54.9011C167.268 54.9011 171.181 57.3852 172.97 60.5772H173.135V38.542H183.155ZM173.135 73.8581C173.135 72.9813 173.051 71.9131 172.894 71.03C171.997 66.777 168.819 63.3195 164.257 63.3195C157.823 63.3195 154.239 69.5247 154.239 77.5874C154.239 85.4703 157.823 91.2303 164.176 91.2303C168.247 91.2303 171.833 88.2189 172.809 83.5244C173.051 82.5456 173.135 81.4837 173.135 80.3279V73.8581Z" fill="#9CA3AF"/>
<path fill-rule="evenodd" clip-rule="evenodd" d="M190.234 99.0224H200.344V55.8803H190.234V99.0224Z" fill="#9CA3AF"/>
<path fill-rule="evenodd" clip-rule="evenodd" d="M207.424 69.7863C207.424 63.9414 207.339 59.7715 207.096 55.877H215.813L216.131 64.1139H216.469C218.421 58.0007 223.064 55.877 227.298 55.877C228.273 55.877 228.843 55.6955 229.659 55.877V65.4484C228.843 65.2715 227.949 65.0945 226.727 65.0945C221.922 65.0945 218.661 68.458 217.767 73.3278C217.608 74.303 217.444 75.4597 217.444 76.7058V99.0245H207.424V69.7863Z" fill="#9CA3AF"/>
<path fill-rule="evenodd" clip-rule="evenodd" d="M234.302 99.0224H244.397V55.8803H234.302V99.0224Z" fill="#9CA3AF"/>
<path fill-rule="evenodd" clip-rule="evenodd" d="M231.914 3.71663C225.85 7.53619 211.548 16.4593 206.208 19.7823V19.7823C202.955 21.5855 195.418 22.3729 191.156 16.1207V16.1207C191.079 16.0079 185.486 8.40575 185.258 8.11951V8.11951C185.097 7.91724 181.482 2.08315 173.425 1.90075V1.90075C172.234 1.87005 166.316 1.83574 160.541 5.40608V5.40608C152.865 10.1765 135.013 21.2785 135.013 21.2785V21.2785C135.008 21.2785 135.008 21.2884 134.999 21.2884V21.2884C127.661 25.8557 121.943 29.4115 121.943 29.4115V29.4115L128.698 38.4367C131.858 42.7051 138.985 46.0072 145.165 42.1479V42.1479C145.165 42.1479 168 27.7636 168.084 27.7221V27.7221C177.959 21.8302 185.58 21.8302 190.638 24.0226V24.0226C195.177 26.1094 199.127 31.3087 199.127 31.3087V31.3087C199.127 31.3087 204.288 38.267 205.199 39.4842V39.4842C208.136 43.4166 212.997 41.8716 212.997 41.8716V41.8716C212.997 41.8716 214.798 41.6495 217.514 39.8959V39.8959C217.514 39.8959 239.632 25.945 239.646 25.9405V25.9405C246.67 21.4582 253.111 20.6211 256.404 20.9507V20.9507C266.715 21.9702 269.918 29.8061 274.389 35.2727V35.2727C277.022 38.4882 279.398 40.314 283.031 40.2219V40.2219C285.419 40.1668 288.116 38.592 288.513 38.3076V38.3076L315 21.6803C315 21.6803 312.282 17.2278 306.717 10.3002V10.3002C301.735 4.11935 296.444 6.91585 292.226 9.18863V9.18863C290.453 10.1422 284.032 14.7888 277.67 18.0305V18.0305C273.137 20.3394 266.625 19.645 263.057 14.8484V14.8484C262.843 14.5568 257.07 6.95377 256.463 6.0183V6.0183C254.133 2.84345 249.587 0 243.76 0V0C240.218 0 236.197 1.05106 231.914 3.71663" fill="#9CA3AF"/>
</svg>
